<mxfile host="app.diagrams.net" agent="Mozilla/5.0 (Windows NT 10.0; Win64; x64) AppleWebKit/537.36 (KHTML, like Gecko) Chrome/138.0.0.0 Safari/537.36 Edg/138.0.0.0" version="28.0.6">
  <diagram name="PÃ¡gina-1" id="Z7oWTjXS6-ame74l3PC0">
    <mxGraphModel dx="1336" dy="880" grid="0" gridSize="10" guides="1" tooltips="1" connect="1" arrows="1" fold="1" page="0" pageScale="1" pageWidth="827" pageHeight="1169" math="0" shadow="0">
      <root>
        <mxCell id="0" />
        <mxCell id="1" parent="0" />
        <mxCell id="Y-wbbDG7EcqQouC9EVg9-1" value="FORNECEDOR" style="shape=table;startSize=25;container=1;collapsible=0;childLayout=tableLayout;fixedRows=1;rowLines=1;fontStyle=1;align=center;resizeLast=1;" vertex="1" parent="1">
          <mxGeometry x="14" y="11" width="283" height="342" as="geometry" />
        </mxCell>
        <mxCell id="Y-wbbDG7EcqQouC9EVg9-2" style="shape=tableRow;horizontal=0;startSize=0;swimlaneHead=0;swimlaneBody=0;fillColor=none;collapsible=0;dropTarget=0;points=[[0,0.5],[1,0.5]];portConstraint=eastwest;top=0;left=0;right=0;bottom=0;" vertex="1" parent="Y-wbbDG7EcqQouC9EVg9-1">
          <mxGeometry y="25" width="283" height="45" as="geometry" />
        </mxCell>
        <mxCell id="Y-wbbDG7EcqQouC9EVg9-3" value="INT" style="shape=partialRectangle;connectable=0;fillColor=none;top=0;left=0;bottom=0;right=0;align=left;spacingLeft=2;overflow=hidden;fontSize=11;" vertex="1" parent="Y-wbbDG7EcqQouC9EVg9-2">
          <mxGeometry width="42" height="45" as="geometry">
            <mxRectangle width="42" height="45" as="alternateBounds" />
          </mxGeometry>
        </mxCell>
        <mxCell id="Y-wbbDG7EcqQouC9EVg9-4" value="id_fornecedor" style="shape=partialRectangle;connectable=0;fillColor=none;top=0;left=0;bottom=0;right=0;align=left;spacingLeft=2;overflow=hidden;fontSize=11;" vertex="1" parent="Y-wbbDG7EcqQouC9EVg9-2">
          <mxGeometry x="42" width="219" height="45" as="geometry">
            <mxRectangle width="219" height="45" as="alternateBounds" />
          </mxGeometry>
        </mxCell>
        <mxCell id="Y-wbbDG7EcqQouC9EVg9-5" value="PK" style="shape=partialRectangle;connectable=0;fillColor=none;top=0;left=0;bottom=0;right=0;align=left;spacingLeft=2;overflow=hidden;fontSize=11;" vertex="1" parent="Y-wbbDG7EcqQouC9EVg9-2">
          <mxGeometry x="261" width="22" height="45" as="geometry">
            <mxRectangle width="22" height="45" as="alternateBounds" />
          </mxGeometry>
        </mxCell>
        <mxCell id="Y-wbbDG7EcqQouC9EVg9-6" style="shape=tableRow;horizontal=0;startSize=0;swimlaneHead=0;swimlaneBody=0;fillColor=none;collapsible=0;dropTarget=0;points=[[0,0.5],[1,0.5]];portConstraint=eastwest;top=0;left=0;right=0;bottom=0;" vertex="1" parent="Y-wbbDG7EcqQouC9EVg9-1">
          <mxGeometry y="70" width="283" height="45" as="geometry" />
        </mxCell>
        <mxCell id="Y-wbbDG7EcqQouC9EVg9-7" value="VARCHAR" style="shape=partialRectangle;connectable=0;fillColor=none;top=0;left=0;bottom=0;right=0;align=left;spacingLeft=2;overflow=hidden;fontSize=11;" vertex="1" parent="Y-wbbDG7EcqQouC9EVg9-6">
          <mxGeometry width="42" height="45" as="geometry">
            <mxRectangle width="42" height="45" as="alternateBounds" />
          </mxGeometry>
        </mxCell>
        <mxCell id="Y-wbbDG7EcqQouC9EVg9-8" value="radical_cnpj" style="shape=partialRectangle;connectable=0;fillColor=none;top=0;left=0;bottom=0;right=0;align=left;spacingLeft=2;overflow=hidden;fontSize=11;" vertex="1" parent="Y-wbbDG7EcqQouC9EVg9-6">
          <mxGeometry x="42" width="219" height="45" as="geometry">
            <mxRectangle width="219" height="45" as="alternateBounds" />
          </mxGeometry>
        </mxCell>
        <mxCell id="Y-wbbDG7EcqQouC9EVg9-9" value="" style="shape=partialRectangle;connectable=0;fillColor=none;top=0;left=0;bottom=0;right=0;align=left;spacingLeft=2;overflow=hidden;fontSize=11;" vertex="1" parent="Y-wbbDG7EcqQouC9EVg9-6">
          <mxGeometry x="261" width="22" height="45" as="geometry">
            <mxRectangle width="22" height="45" as="alternateBounds" />
          </mxGeometry>
        </mxCell>
        <mxCell id="Y-wbbDG7EcqQouC9EVg9-10" style="shape=tableRow;horizontal=0;startSize=0;swimlaneHead=0;swimlaneBody=0;fillColor=none;collapsible=0;dropTarget=0;points=[[0,0.5],[1,0.5]];portConstraint=eastwest;top=0;left=0;right=0;bottom=0;" vertex="1" parent="Y-wbbDG7EcqQouC9EVg9-1">
          <mxGeometry y="115" width="283" height="45" as="geometry" />
        </mxCell>
        <mxCell id="Y-wbbDG7EcqQouC9EVg9-11" value="VARCHAR" style="shape=partialRectangle;connectable=0;fillColor=none;top=0;left=0;bottom=0;right=0;align=left;spacingLeft=2;overflow=hidden;fontSize=11;" vertex="1" parent="Y-wbbDG7EcqQouC9EVg9-10">
          <mxGeometry width="42" height="45" as="geometry">
            <mxRectangle width="42" height="45" as="alternateBounds" />
          </mxGeometry>
        </mxCell>
        <mxCell id="Y-wbbDG7EcqQouC9EVg9-12" value="razao_social" style="shape=partialRectangle;connectable=0;fillColor=none;top=0;left=0;bottom=0;right=0;align=left;spacingLeft=2;overflow=hidden;fontSize=11;" vertex="1" parent="Y-wbbDG7EcqQouC9EVg9-10">
          <mxGeometry x="42" width="219" height="45" as="geometry">
            <mxRectangle width="219" height="45" as="alternateBounds" />
          </mxGeometry>
        </mxCell>
        <mxCell id="Y-wbbDG7EcqQouC9EVg9-13" value="" style="shape=partialRectangle;connectable=0;fillColor=none;top=0;left=0;bottom=0;right=0;align=left;spacingLeft=2;overflow=hidden;fontSize=11;" vertex="1" parent="Y-wbbDG7EcqQouC9EVg9-10">
          <mxGeometry x="261" width="22" height="45" as="geometry">
            <mxRectangle width="22" height="45" as="alternateBounds" />
          </mxGeometry>
        </mxCell>
        <mxCell id="Y-wbbDG7EcqQouC9EVg9-14" style="shape=tableRow;horizontal=0;startSize=0;swimlaneHead=0;swimlaneBody=0;fillColor=none;collapsible=0;dropTarget=0;points=[[0,0.5],[1,0.5]];portConstraint=eastwest;top=0;left=0;right=0;bottom=0;" vertex="1" parent="Y-wbbDG7EcqQouC9EVg9-1">
          <mxGeometry y="160" width="283" height="45" as="geometry" />
        </mxCell>
        <mxCell id="Y-wbbDG7EcqQouC9EVg9-15" value="VARCHAR" style="shape=partialRectangle;connectable=0;fillColor=none;top=0;left=0;bottom=0;right=0;align=left;spacingLeft=2;overflow=hidden;fontSize=11;" vertex="1" parent="Y-wbbDG7EcqQouC9EVg9-14">
          <mxGeometry width="42" height="45" as="geometry">
            <mxRectangle width="42" height="45" as="alternateBounds" />
          </mxGeometry>
        </mxCell>
        <mxCell id="Y-wbbDG7EcqQouC9EVg9-16" value="cod_depto" style="shape=partialRectangle;connectable=0;fillColor=none;top=0;left=0;bottom=0;right=0;align=left;spacingLeft=2;overflow=hidden;fontSize=11;" vertex="1" parent="Y-wbbDG7EcqQouC9EVg9-14">
          <mxGeometry x="42" width="219" height="45" as="geometry">
            <mxRectangle width="219" height="45" as="alternateBounds" />
          </mxGeometry>
        </mxCell>
        <mxCell id="Y-wbbDG7EcqQouC9EVg9-17" value="" style="shape=partialRectangle;connectable=0;fillColor=none;top=0;left=0;bottom=0;right=0;align=left;spacingLeft=2;overflow=hidden;fontSize=11;" vertex="1" parent="Y-wbbDG7EcqQouC9EVg9-14">
          <mxGeometry x="261" width="22" height="45" as="geometry">
            <mxRectangle width="22" height="45" as="alternateBounds" />
          </mxGeometry>
        </mxCell>
        <mxCell id="Y-wbbDG7EcqQouC9EVg9-18" style="shape=tableRow;horizontal=0;startSize=0;swimlaneHead=0;swimlaneBody=0;fillColor=none;collapsible=0;dropTarget=0;points=[[0,0.5],[1,0.5]];portConstraint=eastwest;top=0;left=0;right=0;bottom=0;" vertex="1" parent="Y-wbbDG7EcqQouC9EVg9-1">
          <mxGeometry y="205" width="283" height="45" as="geometry" />
        </mxCell>
        <mxCell id="Y-wbbDG7EcqQouC9EVg9-19" value="VARCHAR" style="shape=partialRectangle;connectable=0;fillColor=none;top=0;left=0;bottom=0;right=0;align=left;spacingLeft=2;overflow=hidden;fontSize=11;" vertex="1" parent="Y-wbbDG7EcqQouC9EVg9-18">
          <mxGeometry width="42" height="45" as="geometry">
            <mxRectangle width="42" height="45" as="alternateBounds" />
          </mxGeometry>
        </mxCell>
        <mxCell id="Y-wbbDG7EcqQouC9EVg9-20" value="nome_depto" style="shape=partialRectangle;connectable=0;fillColor=none;top=0;left=0;bottom=0;right=0;align=left;spacingLeft=2;overflow=hidden;fontSize=11;" vertex="1" parent="Y-wbbDG7EcqQouC9EVg9-18">
          <mxGeometry x="42" width="219" height="45" as="geometry">
            <mxRectangle width="219" height="45" as="alternateBounds" />
          </mxGeometry>
        </mxCell>
        <mxCell id="Y-wbbDG7EcqQouC9EVg9-21" value="" style="shape=partialRectangle;connectable=0;fillColor=none;top=0;left=0;bottom=0;right=0;align=left;spacingLeft=2;overflow=hidden;fontSize=11;" vertex="1" parent="Y-wbbDG7EcqQouC9EVg9-18">
          <mxGeometry x="261" width="22" height="45" as="geometry">
            <mxRectangle width="22" height="45" as="alternateBounds" />
          </mxGeometry>
        </mxCell>
        <mxCell id="Y-wbbDG7EcqQouC9EVg9-22" style="shape=tableRow;horizontal=0;startSize=0;swimlaneHead=0;swimlaneBody=0;fillColor=none;collapsible=0;dropTarget=0;points=[[0,0.5],[1,0.5]];portConstraint=eastwest;top=0;left=0;right=0;bottom=0;" vertex="1" parent="Y-wbbDG7EcqQouC9EVg9-1">
          <mxGeometry y="250" width="283" height="45" as="geometry" />
        </mxCell>
        <mxCell id="Y-wbbDG7EcqQouC9EVg9-23" value="DECIMAL" style="shape=partialRectangle;connectable=0;fillColor=none;top=0;left=0;bottom=0;right=0;align=left;spacingLeft=2;overflow=hidden;fontSize=11;" vertex="1" parent="Y-wbbDG7EcqQouC9EVg9-22">
          <mxGeometry width="42" height="45" as="geometry">
            <mxRectangle width="42" height="45" as="alternateBounds" />
          </mxGeometry>
        </mxCell>
        <mxCell id="Y-wbbDG7EcqQouC9EVg9-24" value="share_percentual" style="shape=partialRectangle;connectable=0;fillColor=none;top=0;left=0;bottom=0;right=0;align=left;spacingLeft=2;overflow=hidden;fontSize=11;" vertex="1" parent="Y-wbbDG7EcqQouC9EVg9-22">
          <mxGeometry x="42" width="219" height="45" as="geometry">
            <mxRectangle width="219" height="45" as="alternateBounds" />
          </mxGeometry>
        </mxCell>
        <mxCell id="Y-wbbDG7EcqQouC9EVg9-25" value="" style="shape=partialRectangle;connectable=0;fillColor=none;top=0;left=0;bottom=0;right=0;align=left;spacingLeft=2;overflow=hidden;fontSize=11;" vertex="1" parent="Y-wbbDG7EcqQouC9EVg9-22">
          <mxGeometry x="261" width="22" height="45" as="geometry">
            <mxRectangle width="22" height="45" as="alternateBounds" />
          </mxGeometry>
        </mxCell>
        <mxCell id="Y-wbbDG7EcqQouC9EVg9-26" style="shape=tableRow;horizontal=0;startSize=0;swimlaneHead=0;swimlaneBody=0;fillColor=none;collapsible=0;dropTarget=0;points=[[0,0.5],[1,0.5]];portConstraint=eastwest;top=0;left=0;right=0;bottom=0;" vertex="1" parent="Y-wbbDG7EcqQouC9EVg9-1">
          <mxGeometry y="295" width="283" height="45" as="geometry" />
        </mxCell>
        <mxCell id="Y-wbbDG7EcqQouC9EVg9-27" value="DATE" style="shape=partialRectangle;connectable=0;fillColor=none;top=0;left=0;bottom=0;right=0;align=left;spacingLeft=2;overflow=hidden;fontSize=11;" vertex="1" parent="Y-wbbDG7EcqQouC9EVg9-26">
          <mxGeometry width="42" height="45" as="geometry">
            <mxRectangle width="42" height="45" as="alternateBounds" />
          </mxGeometry>
        </mxCell>
        <mxCell id="Y-wbbDG7EcqQouC9EVg9-28" value="data_base_share" style="shape=partialRectangle;connectable=0;fillColor=none;top=0;left=0;bottom=0;right=0;align=left;spacingLeft=2;overflow=hidden;fontSize=11;" vertex="1" parent="Y-wbbDG7EcqQouC9EVg9-26">
          <mxGeometry x="42" width="219" height="45" as="geometry">
            <mxRectangle width="219" height="45" as="alternateBounds" />
          </mxGeometry>
        </mxCell>
        <mxCell id="Y-wbbDG7EcqQouC9EVg9-29" value="" style="shape=partialRectangle;connectable=0;fillColor=none;top=0;left=0;bottom=0;right=0;align=left;spacingLeft=2;overflow=hidden;fontSize=11;" vertex="1" parent="Y-wbbDG7EcqQouC9EVg9-26">
          <mxGeometry x="261" width="22" height="45" as="geometry">
            <mxRectangle width="22" height="45" as="alternateBounds" />
          </mxGeometry>
        </mxCell>
        <mxCell id="Y-wbbDG7EcqQouC9EVg9-30" value="ENQUADRAMENTO_FORNECEDOR" style="shape=table;startSize=25;container=1;collapsible=0;childLayout=tableLayout;fixedRows=1;rowLines=1;fontStyle=1;align=center;resizeLast=1;" vertex="1" parent="1">
          <mxGeometry x="448" y="465" width="308" height="301" as="geometry" />
        </mxCell>
        <mxCell id="Y-wbbDG7EcqQouC9EVg9-31" style="shape=tableRow;horizontal=0;startSize=0;swimlaneHead=0;swimlaneBody=0;fillColor=none;collapsible=0;dropTarget=0;points=[[0,0.5],[1,0.5]];portConstraint=eastwest;top=0;left=0;right=0;bottom=0;" vertex="1" parent="Y-wbbDG7EcqQouC9EVg9-30">
          <mxGeometry y="25" width="308" height="46" as="geometry" />
        </mxCell>
        <mxCell id="Y-wbbDG7EcqQouC9EVg9-32" value="INT" style="shape=partialRectangle;connectable=0;fillColor=none;top=0;left=0;bottom=0;right=0;align=left;spacingLeft=2;overflow=hidden;fontSize=11;" vertex="1" parent="Y-wbbDG7EcqQouC9EVg9-31">
          <mxGeometry width="42" height="46" as="geometry">
            <mxRectangle width="42" height="46" as="alternateBounds" />
          </mxGeometry>
        </mxCell>
        <mxCell id="Y-wbbDG7EcqQouC9EVg9-33" value="id_enquadramento" style="shape=partialRectangle;connectable=0;fillColor=none;top=0;left=0;bottom=0;right=0;align=left;spacingLeft=2;overflow=hidden;fontSize=11;" vertex="1" parent="Y-wbbDG7EcqQouC9EVg9-31">
          <mxGeometry x="42" width="244" height="46" as="geometry">
            <mxRectangle width="244" height="46" as="alternateBounds" />
          </mxGeometry>
        </mxCell>
        <mxCell id="Y-wbbDG7EcqQouC9EVg9-34" value="PK" style="shape=partialRectangle;connectable=0;fillColor=none;top=0;left=0;bottom=0;right=0;align=left;spacingLeft=2;overflow=hidden;fontSize=11;" vertex="1" parent="Y-wbbDG7EcqQouC9EVg9-31">
          <mxGeometry x="286" width="22" height="46" as="geometry">
            <mxRectangle width="22" height="46" as="alternateBounds" />
          </mxGeometry>
        </mxCell>
        <mxCell id="Y-wbbDG7EcqQouC9EVg9-35" style="shape=tableRow;horizontal=0;startSize=0;swimlaneHead=0;swimlaneBody=0;fillColor=none;collapsible=0;dropTarget=0;points=[[0,0.5],[1,0.5]];portConstraint=eastwest;top=0;left=0;right=0;bottom=0;" vertex="1" parent="Y-wbbDG7EcqQouC9EVg9-30">
          <mxGeometry y="71" width="308" height="46" as="geometry" />
        </mxCell>
        <mxCell id="Y-wbbDG7EcqQouC9EVg9-36" value="INT" style="shape=partialRectangle;connectable=0;fillColor=none;top=0;left=0;bottom=0;right=0;align=left;spacingLeft=2;overflow=hidden;fontSize=11;" vertex="1" parent="Y-wbbDG7EcqQouC9EVg9-35">
          <mxGeometry width="42" height="46" as="geometry">
            <mxRectangle width="42" height="46" as="alternateBounds" />
          </mxGeometry>
        </mxCell>
        <mxCell id="Y-wbbDG7EcqQouC9EVg9-37" value="id_fornecedor" style="shape=partialRectangle;connectable=0;fillColor=none;top=0;left=0;bottom=0;right=0;align=left;spacingLeft=2;overflow=hidden;fontSize=11;" vertex="1" parent="Y-wbbDG7EcqQouC9EVg9-35">
          <mxGeometry x="42" width="244" height="46" as="geometry">
            <mxRectangle width="244" height="46" as="alternateBounds" />
          </mxGeometry>
        </mxCell>
        <mxCell id="Y-wbbDG7EcqQouC9EVg9-38" value="FK" style="shape=partialRectangle;connectable=0;fillColor=none;top=0;left=0;bottom=0;right=0;align=left;spacingLeft=2;overflow=hidden;fontSize=11;" vertex="1" parent="Y-wbbDG7EcqQouC9EVg9-35">
          <mxGeometry x="286" width="22" height="46" as="geometry">
            <mxRectangle width="22" height="46" as="alternateBounds" />
          </mxGeometry>
        </mxCell>
        <mxCell id="Y-wbbDG7EcqQouC9EVg9-39" style="shape=tableRow;horizontal=0;startSize=0;swimlaneHead=0;swimlaneBody=0;fillColor=none;collapsible=0;dropTarget=0;points=[[0,0.5],[1,0.5]];portConstraint=eastwest;top=0;left=0;right=0;bottom=0;" vertex="1" parent="Y-wbbDG7EcqQouC9EVg9-30">
          <mxGeometry y="117" width="308" height="46" as="geometry" />
        </mxCell>
        <mxCell id="Y-wbbDG7EcqQouC9EVg9-40" value="INT" style="shape=partialRectangle;connectable=0;fillColor=none;top=0;left=0;bottom=0;right=0;align=left;spacingLeft=2;overflow=hidden;fontSize=11;" vertex="1" parent="Y-wbbDG7EcqQouC9EVg9-39">
          <mxGeometry width="42" height="46" as="geometry">
            <mxRectangle width="42" height="46" as="alternateBounds" />
          </mxGeometry>
        </mxCell>
        <mxCell id="Y-wbbDG7EcqQouC9EVg9-41" value="id_faixa" style="shape=partialRectangle;connectable=0;fillColor=none;top=0;left=0;bottom=0;right=0;align=left;spacingLeft=2;overflow=hidden;fontSize=11;" vertex="1" parent="Y-wbbDG7EcqQouC9EVg9-39">
          <mxGeometry x="42" width="244" height="46" as="geometry">
            <mxRectangle width="244" height="46" as="alternateBounds" />
          </mxGeometry>
        </mxCell>
        <mxCell id="Y-wbbDG7EcqQouC9EVg9-42" value="FK" style="shape=partialRectangle;connectable=0;fillColor=none;top=0;left=0;bottom=0;right=0;align=left;spacingLeft=2;overflow=hidden;fontSize=11;" vertex="1" parent="Y-wbbDG7EcqQouC9EVg9-39">
          <mxGeometry x="286" width="22" height="46" as="geometry">
            <mxRectangle width="22" height="46" as="alternateBounds" />
          </mxGeometry>
        </mxCell>
        <mxCell id="Y-wbbDG7EcqQouC9EVg9-43" style="shape=tableRow;horizontal=0;startSize=0;swimlaneHead=0;swimlaneBody=0;fillColor=none;collapsible=0;dropTarget=0;points=[[0,0.5],[1,0.5]];portConstraint=eastwest;top=0;left=0;right=0;bottom=0;" vertex="1" parent="Y-wbbDG7EcqQouC9EVg9-30">
          <mxGeometry y="163" width="308" height="46" as="geometry" />
        </mxCell>
        <mxCell id="Y-wbbDG7EcqQouC9EVg9-44" value="INT" style="shape=partialRectangle;connectable=0;fillColor=none;top=0;left=0;bottom=0;right=0;align=left;spacingLeft=2;overflow=hidden;fontSize=11;" vertex="1" parent="Y-wbbDG7EcqQouC9EVg9-43">
          <mxGeometry width="42" height="46" as="geometry">
            <mxRectangle width="42" height="46" as="alternateBounds" />
          </mxGeometry>
        </mxCell>
        <mxCell id="Y-wbbDG7EcqQouC9EVg9-45" value="id_reuniao" style="shape=partialRectangle;connectable=0;fillColor=none;top=0;left=0;bottom=0;right=0;align=left;spacingLeft=2;overflow=hidden;fontSize=11;" vertex="1" parent="Y-wbbDG7EcqQouC9EVg9-43">
          <mxGeometry x="42" width="244" height="46" as="geometry">
            <mxRectangle width="244" height="46" as="alternateBounds" />
          </mxGeometry>
        </mxCell>
        <mxCell id="Y-wbbDG7EcqQouC9EVg9-46" value="FK" style="shape=partialRectangle;connectable=0;fillColor=none;top=0;left=0;bottom=0;right=0;align=left;spacingLeft=2;overflow=hidden;fontSize=11;" vertex="1" parent="Y-wbbDG7EcqQouC9EVg9-43">
          <mxGeometry x="286" width="22" height="46" as="geometry">
            <mxRectangle width="22" height="46" as="alternateBounds" />
          </mxGeometry>
        </mxCell>
        <mxCell id="Y-wbbDG7EcqQouC9EVg9-47" style="shape=tableRow;horizontal=0;startSize=0;swimlaneHead=0;swimlaneBody=0;fillColor=none;collapsible=0;dropTarget=0;points=[[0,0.5],[1,0.5]];portConstraint=eastwest;top=0;left=0;right=0;bottom=0;" vertex="1" parent="Y-wbbDG7EcqQouC9EVg9-30">
          <mxGeometry y="209" width="308" height="46" as="geometry" />
        </mxCell>
        <mxCell id="Y-wbbDG7EcqQouC9EVg9-48" value="DATE" style="shape=partialRectangle;connectable=0;fillColor=none;top=0;left=0;bottom=0;right=0;align=left;spacingLeft=2;overflow=hidden;fontSize=11;" vertex="1" parent="Y-wbbDG7EcqQouC9EVg9-47">
          <mxGeometry width="42" height="46" as="geometry">
            <mxRectangle width="42" height="46" as="alternateBounds" />
          </mxGeometry>
        </mxCell>
        <mxCell id="Y-wbbDG7EcqQouC9EVg9-49" value="data_enquadramento" style="shape=partialRectangle;connectable=0;fillColor=none;top=0;left=0;bottom=0;right=0;align=left;spacingLeft=2;overflow=hidden;fontSize=11;" vertex="1" parent="Y-wbbDG7EcqQouC9EVg9-47">
          <mxGeometry x="42" width="244" height="46" as="geometry">
            <mxRectangle width="244" height="46" as="alternateBounds" />
          </mxGeometry>
        </mxCell>
        <mxCell id="Y-wbbDG7EcqQouC9EVg9-50" value="" style="shape=partialRectangle;connectable=0;fillColor=none;top=0;left=0;bottom=0;right=0;align=left;spacingLeft=2;overflow=hidden;fontSize=11;" vertex="1" parent="Y-wbbDG7EcqQouC9EVg9-47">
          <mxGeometry x="286" width="22" height="46" as="geometry">
            <mxRectangle width="22" height="46" as="alternateBounds" />
          </mxGeometry>
        </mxCell>
        <mxCell id="Y-wbbDG7EcqQouC9EVg9-51" style="shape=tableRow;horizontal=0;startSize=0;swimlaneHead=0;swimlaneBody=0;fillColor=none;collapsible=0;dropTarget=0;points=[[0,0.5],[1,0.5]];portConstraint=eastwest;top=0;left=0;right=0;bottom=0;" vertex="1" parent="Y-wbbDG7EcqQouC9EVg9-30">
          <mxGeometry y="255" width="308" height="46" as="geometry" />
        </mxCell>
        <mxCell id="Y-wbbDG7EcqQouC9EVg9-52" value="DECIMAL" style="shape=partialRectangle;connectable=0;fillColor=none;top=0;left=0;bottom=0;right=0;align=left;spacingLeft=2;overflow=hidden;fontSize=11;" vertex="1" parent="Y-wbbDG7EcqQouC9EVg9-51">
          <mxGeometry width="42" height="46" as="geometry">
            <mxRectangle width="42" height="46" as="alternateBounds" />
          </mxGeometry>
        </mxCell>
        <mxCell id="Y-wbbDG7EcqQouC9EVg9-53" value="taxa_aplicada_mes" style="shape=partialRectangle;connectable=0;fillColor=none;top=0;left=0;bottom=0;right=0;align=left;spacingLeft=2;overflow=hidden;fontSize=11;" vertex="1" parent="Y-wbbDG7EcqQouC9EVg9-51">
          <mxGeometry x="42" width="244" height="46" as="geometry">
            <mxRectangle width="244" height="46" as="alternateBounds" />
          </mxGeometry>
        </mxCell>
        <mxCell id="Y-wbbDG7EcqQouC9EVg9-54" value="" style="shape=partialRectangle;connectable=0;fillColor=none;top=0;left=0;bottom=0;right=0;align=left;spacingLeft=2;overflow=hidden;fontSize=11;" vertex="1" parent="Y-wbbDG7EcqQouC9EVg9-51">
          <mxGeometry x="286" width="22" height="46" as="geometry">
            <mxRectangle width="22" height="46" as="alternateBounds" />
          </mxGeometry>
        </mxCell>
        <mxCell id="Y-wbbDG7EcqQouC9EVg9-55" value="FAIXA_PERFORMANCE" style="shape=table;startSize=25;container=1;collapsible=0;childLayout=tableLayout;fixedRows=1;rowLines=1;fontStyle=1;align=center;resizeLast=1;" vertex="1" parent="1">
          <mxGeometry x="443" y="63" width="318" height="257" as="geometry" />
        </mxCell>
        <mxCell id="Y-wbbDG7EcqQouC9EVg9-56" style="shape=tableRow;horizontal=0;startSize=0;swimlaneHead=0;swimlaneBody=0;fillColor=none;collapsible=0;dropTarget=0;points=[[0,0.5],[1,0.5]];portConstraint=eastwest;top=0;left=0;right=0;bottom=0;" vertex="1" parent="Y-wbbDG7EcqQouC9EVg9-55">
          <mxGeometry y="25" width="318" height="46" as="geometry" />
        </mxCell>
        <mxCell id="Y-wbbDG7EcqQouC9EVg9-57" value="INT" style="shape=partialRectangle;connectable=0;fillColor=none;top=0;left=0;bottom=0;right=0;align=left;spacingLeft=2;overflow=hidden;fontSize=11;" vertex="1" parent="Y-wbbDG7EcqQouC9EVg9-56">
          <mxGeometry width="42" height="46" as="geometry">
            <mxRectangle width="42" height="46" as="alternateBounds" />
          </mxGeometry>
        </mxCell>
        <mxCell id="Y-wbbDG7EcqQouC9EVg9-58" value="id_faixa" style="shape=partialRectangle;connectable=0;fillColor=none;top=0;left=0;bottom=0;right=0;align=left;spacingLeft=2;overflow=hidden;fontSize=11;" vertex="1" parent="Y-wbbDG7EcqQouC9EVg9-56">
          <mxGeometry x="42" width="254" height="46" as="geometry">
            <mxRectangle width="254" height="46" as="alternateBounds" />
          </mxGeometry>
        </mxCell>
        <mxCell id="Y-wbbDG7EcqQouC9EVg9-59" value="PK" style="shape=partialRectangle;connectable=0;fillColor=none;top=0;left=0;bottom=0;right=0;align=left;spacingLeft=2;overflow=hidden;fontSize=11;" vertex="1" parent="Y-wbbDG7EcqQouC9EVg9-56">
          <mxGeometry x="296" width="22" height="46" as="geometry">
            <mxRectangle width="22" height="46" as="alternateBounds" />
          </mxGeometry>
        </mxCell>
        <mxCell id="Y-wbbDG7EcqQouC9EVg9-60" style="shape=tableRow;horizontal=0;startSize=0;swimlaneHead=0;swimlaneBody=0;fillColor=none;collapsible=0;dropTarget=0;points=[[0,0.5],[1,0.5]];portConstraint=eastwest;top=0;left=0;right=0;bottom=0;" vertex="1" parent="Y-wbbDG7EcqQouC9EVg9-55">
          <mxGeometry y="71" width="318" height="46" as="geometry" />
        </mxCell>
        <mxCell id="Y-wbbDG7EcqQouC9EVg9-61" value="VARCHAR" style="shape=partialRectangle;connectable=0;fillColor=none;top=0;left=0;bottom=0;right=0;align=left;spacingLeft=2;overflow=hidden;fontSize=11;" vertex="1" parent="Y-wbbDG7EcqQouC9EVg9-60">
          <mxGeometry width="42" height="46" as="geometry">
            <mxRectangle width="42" height="46" as="alternateBounds" />
          </mxGeometry>
        </mxCell>
        <mxCell id="Y-wbbDG7EcqQouC9EVg9-62" value="nome_faixa" style="shape=partialRectangle;connectable=0;fillColor=none;top=0;left=0;bottom=0;right=0;align=left;spacingLeft=2;overflow=hidden;fontSize=11;" vertex="1" parent="Y-wbbDG7EcqQouC9EVg9-60">
          <mxGeometry x="42" width="254" height="46" as="geometry">
            <mxRectangle width="254" height="46" as="alternateBounds" />
          </mxGeometry>
        </mxCell>
        <mxCell id="Y-wbbDG7EcqQouC9EVg9-63" value="" style="shape=partialRectangle;connectable=0;fillColor=none;top=0;left=0;bottom=0;right=0;align=left;spacingLeft=2;overflow=hidden;fontSize=11;" vertex="1" parent="Y-wbbDG7EcqQouC9EVg9-60">
          <mxGeometry x="296" width="22" height="46" as="geometry">
            <mxRectangle width="22" height="46" as="alternateBounds" />
          </mxGeometry>
        </mxCell>
        <mxCell id="Y-wbbDG7EcqQouC9EVg9-64" style="shape=tableRow;horizontal=0;startSize=0;swimlaneHead=0;swimlaneBody=0;fillColor=none;collapsible=0;dropTarget=0;points=[[0,0.5],[1,0.5]];portConstraint=eastwest;top=0;left=0;right=0;bottom=0;" vertex="1" parent="Y-wbbDG7EcqQouC9EVg9-55">
          <mxGeometry y="117" width="318" height="46" as="geometry" />
        </mxCell>
        <mxCell id="Y-wbbDG7EcqQouC9EVg9-65" value="DECIMAL" style="shape=partialRectangle;connectable=0;fillColor=none;top=0;left=0;bottom=0;right=0;align=left;spacingLeft=2;overflow=hidden;fontSize=11;" vertex="1" parent="Y-wbbDG7EcqQouC9EVg9-64">
          <mxGeometry width="42" height="46" as="geometry">
            <mxRectangle width="42" height="46" as="alternateBounds" />
          </mxGeometry>
        </mxCell>
        <mxCell id="Y-wbbDG7EcqQouC9EVg9-66" value="taxa_min_cdi_percent" style="shape=partialRectangle;connectable=0;fillColor=none;top=0;left=0;bottom=0;right=0;align=left;spacingLeft=2;overflow=hidden;fontSize=11;" vertex="1" parent="Y-wbbDG7EcqQouC9EVg9-64">
          <mxGeometry x="42" width="254" height="46" as="geometry">
            <mxRectangle width="254" height="46" as="alternateBounds" />
          </mxGeometry>
        </mxCell>
        <mxCell id="Y-wbbDG7EcqQouC9EVg9-67" value="" style="shape=partialRectangle;connectable=0;fillColor=none;top=0;left=0;bottom=0;right=0;align=left;spacingLeft=2;overflow=hidden;fontSize=11;" vertex="1" parent="Y-wbbDG7EcqQouC9EVg9-64">
          <mxGeometry x="296" width="22" height="46" as="geometry">
            <mxRectangle width="22" height="46" as="alternateBounds" />
          </mxGeometry>
        </mxCell>
        <mxCell id="Y-wbbDG7EcqQouC9EVg9-68" style="shape=tableRow;horizontal=0;startSize=0;swimlaneHead=0;swimlaneBody=0;fillColor=none;collapsible=0;dropTarget=0;points=[[0,0.5],[1,0.5]];portConstraint=eastwest;top=0;left=0;right=0;bottom=0;" vertex="1" parent="Y-wbbDG7EcqQouC9EVg9-55">
          <mxGeometry y="163" width="318" height="46" as="geometry" />
        </mxCell>
        <mxCell id="Y-wbbDG7EcqQouC9EVg9-69" value="DECIMAL" style="shape=partialRectangle;connectable=0;fillColor=none;top=0;left=0;bottom=0;right=0;align=left;spacingLeft=2;overflow=hidden;fontSize=11;" vertex="1" parent="Y-wbbDG7EcqQouC9EVg9-68">
          <mxGeometry width="42" height="46" as="geometry">
            <mxRectangle width="42" height="46" as="alternateBounds" />
          </mxGeometry>
        </mxCell>
        <mxCell id="Y-wbbDG7EcqQouC9EVg9-70" value="share_min_percent" style="shape=partialRectangle;connectable=0;fillColor=none;top=0;left=0;bottom=0;right=0;align=left;spacingLeft=2;overflow=hidden;fontSize=11;" vertex="1" parent="Y-wbbDG7EcqQouC9EVg9-68">
          <mxGeometry x="42" width="254" height="46" as="geometry">
            <mxRectangle width="254" height="46" as="alternateBounds" />
          </mxGeometry>
        </mxCell>
        <mxCell id="Y-wbbDG7EcqQouC9EVg9-71" value="" style="shape=partialRectangle;connectable=0;fillColor=none;top=0;left=0;bottom=0;right=0;align=left;spacingLeft=2;overflow=hidden;fontSize=11;" vertex="1" parent="Y-wbbDG7EcqQouC9EVg9-68">
          <mxGeometry x="296" width="22" height="46" as="geometry">
            <mxRectangle width="22" height="46" as="alternateBounds" />
          </mxGeometry>
        </mxCell>
        <mxCell id="Y-wbbDG7EcqQouC9EVg9-72" style="shape=tableRow;horizontal=0;startSize=0;swimlaneHead=0;swimlaneBody=0;fillColor=none;collapsible=0;dropTarget=0;points=[[0,0.5],[1,0.5]];portConstraint=eastwest;top=0;left=0;right=0;bottom=0;" vertex="1" parent="Y-wbbDG7EcqQouC9EVg9-55">
          <mxGeometry y="209" width="318" height="46" as="geometry" />
        </mxCell>
        <mxCell id="Y-wbbDG7EcqQouC9EVg9-73" value="DECIMAL" style="shape=partialRectangle;connectable=0;fillColor=none;top=0;left=0;bottom=0;right=0;align=left;spacingLeft=2;overflow=hidden;fontSize=11;" vertex="1" parent="Y-wbbDG7EcqQouC9EVg9-72">
          <mxGeometry width="42" height="46" as="geometry">
            <mxRectangle width="42" height="46" as="alternateBounds" />
          </mxGeometry>
        </mxCell>
        <mxCell id="Y-wbbDG7EcqQouC9EVg9-74" value="share_max_percent" style="shape=partialRectangle;connectable=0;fillColor=none;top=0;left=0;bottom=0;right=0;align=left;spacingLeft=2;overflow=hidden;fontSize=11;" vertex="1" parent="Y-wbbDG7EcqQouC9EVg9-72">
          <mxGeometry x="42" width="254" height="46" as="geometry">
            <mxRectangle width="254" height="46" as="alternateBounds" />
          </mxGeometry>
        </mxCell>
        <mxCell id="Y-wbbDG7EcqQouC9EVg9-75" value="" style="shape=partialRectangle;connectable=0;fillColor=none;top=0;left=0;bottom=0;right=0;align=left;spacingLeft=2;overflow=hidden;fontSize=11;" vertex="1" parent="Y-wbbDG7EcqQouC9EVg9-72">
          <mxGeometry x="296" width="22" height="46" as="geometry">
            <mxRectangle width="22" height="46" as="alternateBounds" />
          </mxGeometry>
        </mxCell>
        <mxCell id="Y-wbbDG7EcqQouC9EVg9-76" value="COMITE_TAXAS" style="shape=table;startSize=25;container=1;collapsible=0;childLayout=tableLayout;fixedRows=1;rowLines=1;fontStyle=1;align=center;resizeLast=1;" vertex="1" parent="1">
          <mxGeometry x="901" y="20" width="275" height="342" as="geometry" />
        </mxCell>
        <mxCell id="Y-wbbDG7EcqQouC9EVg9-77" style="shape=tableRow;horizontal=0;startSize=0;swimlaneHead=0;swimlaneBody=0;fillColor=none;collapsible=0;dropTarget=0;points=[[0,0.5],[1,0.5]];portConstraint=eastwest;top=0;left=0;right=0;bottom=0;" vertex="1" parent="Y-wbbDG7EcqQouC9EVg9-76">
          <mxGeometry y="25" width="275" height="45" as="geometry" />
        </mxCell>
        <mxCell id="Y-wbbDG7EcqQouC9EVg9-78" value="INT" style="shape=partialRectangle;connectable=0;fillColor=none;top=0;left=0;bottom=0;right=0;align=left;spacingLeft=2;overflow=hidden;fontSize=11;" vertex="1" parent="Y-wbbDG7EcqQouC9EVg9-77">
          <mxGeometry width="42" height="45" as="geometry">
            <mxRectangle width="42" height="45" as="alternateBounds" />
          </mxGeometry>
        </mxCell>
        <mxCell id="Y-wbbDG7EcqQouC9EVg9-79" value="id_reuniao" style="shape=partialRectangle;connectable=0;fillColor=none;top=0;left=0;bottom=0;right=0;align=left;spacingLeft=2;overflow=hidden;fontSize=11;" vertex="1" parent="Y-wbbDG7EcqQouC9EVg9-77">
          <mxGeometry x="42" width="211" height="45" as="geometry">
            <mxRectangle width="211" height="45" as="alternateBounds" />
          </mxGeometry>
        </mxCell>
        <mxCell id="Y-wbbDG7EcqQouC9EVg9-80" value="PK" style="shape=partialRectangle;connectable=0;fillColor=none;top=0;left=0;bottom=0;right=0;align=left;spacingLeft=2;overflow=hidden;fontSize=11;" vertex="1" parent="Y-wbbDG7EcqQouC9EVg9-77">
          <mxGeometry x="253" width="22" height="45" as="geometry">
            <mxRectangle width="22" height="45" as="alternateBounds" />
          </mxGeometry>
        </mxCell>
        <mxCell id="Y-wbbDG7EcqQouC9EVg9-81" style="shape=tableRow;horizontal=0;startSize=0;swimlaneHead=0;swimlaneBody=0;fillColor=none;collapsible=0;dropTarget=0;points=[[0,0.5],[1,0.5]];portConstraint=eastwest;top=0;left=0;right=0;bottom=0;" vertex="1" parent="Y-wbbDG7EcqQouC9EVg9-76">
          <mxGeometry y="70" width="275" height="45" as="geometry" />
        </mxCell>
        <mxCell id="Y-wbbDG7EcqQouC9EVg9-82" value="VARCHAR" style="shape=partialRectangle;connectable=0;fillColor=none;top=0;left=0;bottom=0;right=0;align=left;spacingLeft=2;overflow=hidden;fontSize=11;" vertex="1" parent="Y-wbbDG7EcqQouC9EVg9-81">
          <mxGeometry width="42" height="45" as="geometry">
            <mxRectangle width="42" height="45" as="alternateBounds" />
          </mxGeometry>
        </mxCell>
        <mxCell id="Y-wbbDG7EcqQouC9EVg9-83" value="numero_reuniao" style="shape=partialRectangle;connectable=0;fillColor=none;top=0;left=0;bottom=0;right=0;align=left;spacingLeft=2;overflow=hidden;fontSize=11;" vertex="1" parent="Y-wbbDG7EcqQouC9EVg9-81">
          <mxGeometry x="42" width="211" height="45" as="geometry">
            <mxRectangle width="211" height="45" as="alternateBounds" />
          </mxGeometry>
        </mxCell>
        <mxCell id="Y-wbbDG7EcqQouC9EVg9-84" value="" style="shape=partialRectangle;connectable=0;fillColor=none;top=0;left=0;bottom=0;right=0;align=left;spacingLeft=2;overflow=hidden;fontSize=11;" vertex="1" parent="Y-wbbDG7EcqQouC9EVg9-81">
          <mxGeometry x="253" width="22" height="45" as="geometry">
            <mxRectangle width="22" height="45" as="alternateBounds" />
          </mxGeometry>
        </mxCell>
        <mxCell id="Y-wbbDG7EcqQouC9EVg9-85" style="shape=tableRow;horizontal=0;startSize=0;swimlaneHead=0;swimlaneBody=0;fillColor=none;collapsible=0;dropTarget=0;points=[[0,0.5],[1,0.5]];portConstraint=eastwest;top=0;left=0;right=0;bottom=0;" vertex="1" parent="Y-wbbDG7EcqQouC9EVg9-76">
          <mxGeometry y="115" width="275" height="45" as="geometry" />
        </mxCell>
        <mxCell id="Y-wbbDG7EcqQouC9EVg9-86" value="DATE" style="shape=partialRectangle;connectable=0;fillColor=none;top=0;left=0;bottom=0;right=0;align=left;spacingLeft=2;overflow=hidden;fontSize=11;" vertex="1" parent="Y-wbbDG7EcqQouC9EVg9-85">
          <mxGeometry width="42" height="45" as="geometry">
            <mxRectangle width="42" height="45" as="alternateBounds" />
          </mxGeometry>
        </mxCell>
        <mxCell id="Y-wbbDG7EcqQouC9EVg9-87" value="data_reuniao" style="shape=partialRectangle;connectable=0;fillColor=none;top=0;left=0;bottom=0;right=0;align=left;spacingLeft=2;overflow=hidden;fontSize=11;" vertex="1" parent="Y-wbbDG7EcqQouC9EVg9-85">
          <mxGeometry x="42" width="211" height="45" as="geometry">
            <mxRectangle width="211" height="45" as="alternateBounds" />
          </mxGeometry>
        </mxCell>
        <mxCell id="Y-wbbDG7EcqQouC9EVg9-88" value="" style="shape=partialRectangle;connectable=0;fillColor=none;top=0;left=0;bottom=0;right=0;align=left;spacingLeft=2;overflow=hidden;fontSize=11;" vertex="1" parent="Y-wbbDG7EcqQouC9EVg9-85">
          <mxGeometry x="253" width="22" height="45" as="geometry">
            <mxRectangle width="22" height="45" as="alternateBounds" />
          </mxGeometry>
        </mxCell>
        <mxCell id="Y-wbbDG7EcqQouC9EVg9-89" style="shape=tableRow;horizontal=0;startSize=0;swimlaneHead=0;swimlaneBody=0;fillColor=none;collapsible=0;dropTarget=0;points=[[0,0.5],[1,0.5]];portConstraint=eastwest;top=0;left=0;right=0;bottom=0;" vertex="1" parent="Y-wbbDG7EcqQouC9EVg9-76">
          <mxGeometry y="160" width="275" height="45" as="geometry" />
        </mxCell>
        <mxCell id="Y-wbbDG7EcqQouC9EVg9-90" value="DATE" style="shape=partialRectangle;connectable=0;fillColor=none;top=0;left=0;bottom=0;right=0;align=left;spacingLeft=2;overflow=hidden;fontSize=11;" vertex="1" parent="Y-wbbDG7EcqQouC9EVg9-89">
          <mxGeometry width="42" height="45" as="geometry">
            <mxRectangle width="42" height="45" as="alternateBounds" />
          </mxGeometry>
        </mxCell>
        <mxCell id="Y-wbbDG7EcqQouC9EVg9-91" value="vigencia_inicio" style="shape=partialRectangle;connectable=0;fillColor=none;top=0;left=0;bottom=0;right=0;align=left;spacingLeft=2;overflow=hidden;fontSize=11;" vertex="1" parent="Y-wbbDG7EcqQouC9EVg9-89">
          <mxGeometry x="42" width="211" height="45" as="geometry">
            <mxRectangle width="211" height="45" as="alternateBounds" />
          </mxGeometry>
        </mxCell>
        <mxCell id="Y-wbbDG7EcqQouC9EVg9-92" value="" style="shape=partialRectangle;connectable=0;fillColor=none;top=0;left=0;bottom=0;right=0;align=left;spacingLeft=2;overflow=hidden;fontSize=11;" vertex="1" parent="Y-wbbDG7EcqQouC9EVg9-89">
          <mxGeometry x="253" width="22" height="45" as="geometry">
            <mxRectangle width="22" height="45" as="alternateBounds" />
          </mxGeometry>
        </mxCell>
        <mxCell id="Y-wbbDG7EcqQouC9EVg9-93" style="shape=tableRow;horizontal=0;startSize=0;swimlaneHead=0;swimlaneBody=0;fillColor=none;collapsible=0;dropTarget=0;points=[[0,0.5],[1,0.5]];portConstraint=eastwest;top=0;left=0;right=0;bottom=0;" vertex="1" parent="Y-wbbDG7EcqQouC9EVg9-76">
          <mxGeometry y="205" width="275" height="45" as="geometry" />
        </mxCell>
        <mxCell id="Y-wbbDG7EcqQouC9EVg9-94" value="DATE" style="shape=partialRectangle;connectable=0;fillColor=none;top=0;left=0;bottom=0;right=0;align=left;spacingLeft=2;overflow=hidden;fontSize=11;" vertex="1" parent="Y-wbbDG7EcqQouC9EVg9-93">
          <mxGeometry width="42" height="45" as="geometry">
            <mxRectangle width="42" height="45" as="alternateBounds" />
          </mxGeometry>
        </mxCell>
        <mxCell id="Y-wbbDG7EcqQouC9EVg9-95" value="vigencia_fim" style="shape=partialRectangle;connectable=0;fillColor=none;top=0;left=0;bottom=0;right=0;align=left;spacingLeft=2;overflow=hidden;fontSize=11;" vertex="1" parent="Y-wbbDG7EcqQouC9EVg9-93">
          <mxGeometry x="42" width="211" height="45" as="geometry">
            <mxRectangle width="211" height="45" as="alternateBounds" />
          </mxGeometry>
        </mxCell>
        <mxCell id="Y-wbbDG7EcqQouC9EVg9-96" value="" style="shape=partialRectangle;connectable=0;fillColor=none;top=0;left=0;bottom=0;right=0;align=left;spacingLeft=2;overflow=hidden;fontSize=11;" vertex="1" parent="Y-wbbDG7EcqQouC9EVg9-93">
          <mxGeometry x="253" width="22" height="45" as="geometry">
            <mxRectangle width="22" height="45" as="alternateBounds" />
          </mxGeometry>
        </mxCell>
        <mxCell id="Y-wbbDG7EcqQouC9EVg9-97" style="shape=tableRow;horizontal=0;startSize=0;swimlaneHead=0;swimlaneBody=0;fillColor=none;collapsible=0;dropTarget=0;points=[[0,0.5],[1,0.5]];portConstraint=eastwest;top=0;left=0;right=0;bottom=0;" vertex="1" parent="Y-wbbDG7EcqQouC9EVg9-76">
          <mxGeometry y="250" width="275" height="45" as="geometry" />
        </mxCell>
        <mxCell id="Y-wbbDG7EcqQouC9EVg9-98" value="DECIMAL" style="shape=partialRectangle;connectable=0;fillColor=none;top=0;left=0;bottom=0;right=0;align=left;spacingLeft=2;overflow=hidden;fontSize=11;" vertex="1" parent="Y-wbbDG7EcqQouC9EVg9-97">
          <mxGeometry width="42" height="45" as="geometry">
            <mxRectangle width="42" height="45" as="alternateBounds" />
          </mxGeometry>
        </mxCell>
        <mxCell id="Y-wbbDG7EcqQouC9EVg9-99" value="meta_selic_aa" style="shape=partialRectangle;connectable=0;fillColor=none;top=0;left=0;bottom=0;right=0;align=left;spacingLeft=2;overflow=hidden;fontSize=11;" vertex="1" parent="Y-wbbDG7EcqQouC9EVg9-97">
          <mxGeometry x="42" width="211" height="45" as="geometry">
            <mxRectangle width="211" height="45" as="alternateBounds" />
          </mxGeometry>
        </mxCell>
        <mxCell id="Y-wbbDG7EcqQouC9EVg9-100" value="" style="shape=partialRectangle;connectable=0;fillColor=none;top=0;left=0;bottom=0;right=0;align=left;spacingLeft=2;overflow=hidden;fontSize=11;" vertex="1" parent="Y-wbbDG7EcqQouC9EVg9-97">
          <mxGeometry x="253" width="22" height="45" as="geometry">
            <mxRectangle width="22" height="45" as="alternateBounds" />
          </mxGeometry>
        </mxCell>
        <mxCell id="Y-wbbDG7EcqQouC9EVg9-101" style="shape=tableRow;horizontal=0;startSize=0;swimlaneHead=0;swimlaneBody=0;fillColor=none;collapsible=0;dropTarget=0;points=[[0,0.5],[1,0.5]];portConstraint=eastwest;top=0;left=0;right=0;bottom=0;" vertex="1" parent="Y-wbbDG7EcqQouC9EVg9-76">
          <mxGeometry y="295" width="275" height="45" as="geometry" />
        </mxCell>
        <mxCell id="Y-wbbDG7EcqQouC9EVg9-102" value="DECIMAL" style="shape=partialRectangle;connectable=0;fillColor=none;top=0;left=0;bottom=0;right=0;align=left;spacingLeft=2;overflow=hidden;fontSize=11;" vertex="1" parent="Y-wbbDG7EcqQouC9EVg9-101">
          <mxGeometry width="42" height="45" as="geometry">
            <mxRectangle width="42" height="45" as="alternateBounds" />
          </mxGeometry>
        </mxCell>
        <mxCell id="Y-wbbDG7EcqQouC9EVg9-103" value="meta_selic_am" style="shape=partialRectangle;connectable=0;fillColor=none;top=0;left=0;bottom=0;right=0;align=left;spacingLeft=2;overflow=hidden;fontSize=11;" vertex="1" parent="Y-wbbDG7EcqQouC9EVg9-101">
          <mxGeometry x="42" width="211" height="45" as="geometry">
            <mxRectangle width="211" height="45" as="alternateBounds" />
          </mxGeometry>
        </mxCell>
        <mxCell id="Y-wbbDG7EcqQouC9EVg9-104" value="" style="shape=partialRectangle;connectable=0;fillColor=none;top=0;left=0;bottom=0;right=0;align=left;spacingLeft=2;overflow=hidden;fontSize=11;" vertex="1" parent="Y-wbbDG7EcqQouC9EVg9-101">
          <mxGeometry x="253" width="22" height="45" as="geometry">
            <mxRectangle width="22" height="45" as="alternateBounds" />
          </mxGeometry>
        </mxCell>
        <mxCell id="Y-wbbDG7EcqQouC9EVg9-105" value="possui" style="curved=1;startArrow=ERmandOne;startSize=10;;endArrow=ERzeroToMany;endSize=10;;exitX=0.5;exitY=1;entryX=0;entryY=0.27;rounded=0;flowAnimation=1;" edge="1" parent="1" source="Y-wbbDG7EcqQouC9EVg9-1" target="Y-wbbDG7EcqQouC9EVg9-30">
          <mxGeometry relative="1" as="geometry">
            <Array as="points">
              <mxPoint x="161" y="414" />
            </Array>
          </mxGeometry>
        </mxCell>
        <mxCell id="Y-wbbDG7EcqQouC9EVg9-106" value="classifica" style="curved=1;startArrow=ERmandOne;startSize=10;;endArrow=ERzeroToMany;endSize=10;;exitX=0.5;exitY=1;entryX=0.5;entryY=0;rounded=0;flowAnimation=1;" edge="1" parent="1" source="Y-wbbDG7EcqQouC9EVg9-55" target="Y-wbbDG7EcqQouC9EVg9-30">
          <mxGeometry relative="1" as="geometry">
            <Array as="points" />
          </mxGeometry>
        </mxCell>
        <mxCell id="Y-wbbDG7EcqQouC9EVg9-107" value="referencia" style="curved=1;startArrow=ERmandOne;startSize=10;;endArrow=ERzeroToMany;endSize=10;;exitX=0.5;exitY=1;entryX=1;entryY=0.26;rounded=0;flowAnimation=1;" edge="1" parent="1" source="Y-wbbDG7EcqQouC9EVg9-76" target="Y-wbbDG7EcqQouC9EVg9-30">
          <mxGeometry relative="1" as="geometry">
            <Array as="points">
              <mxPoint x="1039" y="414" />
            </Array>
          </mxGeometry>
        </mxCell>
      </root>
    </mxGraphModel>
  </diagram>
</mxfile>
